<svg width="112" height="35" viewBox="0 0 112 35" fill="none" xmlns="http://www.w3.org/2000/svg">
<g filter="url(#filter0_d_102_30)">
<rect x="4.5" y="4.5" width="103" height="26" rx="13" fill="#ECECEC" shape-rendering="crispEdges"/>
<path d="M18.5 26.5C17.3833 26.5 16.3417 26.2959 15.375 25.8878C14.4083 25.4796 13.5625 24.9204 12.8375 24.2102C12.1125 23.5 11.5417 22.6714 11.125 21.7245C10.7083 20.7776 10.5 19.7571 10.5 18.6633H11.275C11.275 20.6224 11.9792 22.2918 13.3875 23.6714C14.7958 25.051 16.5 25.7408 18.5 25.7408C20.5 25.7408 22.2042 25.051 23.6125 23.6714C25.0208 22.2918 25.725 20.6224 25.725 18.6633C25.725 16.7041 25.0333 15.0347 23.65 13.6551C22.2667 12.2755 20.575 11.5857 18.575 11.5857H17.975L19.75 13.3L19.2 13.8143L16.5 11.1449L19.225 8.5L19.775 9.01429L17.925 10.8265H18.5C19.6167 10.8265 20.6583 11.0306 21.625 11.4388C22.5917 11.8469 23.4375 12.4061 24.1625 13.1163C24.8875 13.8265 25.4583 14.6551 25.875 15.602C26.2917 16.549 26.5 17.5694 26.5 18.6633C26.5 19.7571 26.2917 20.7776 25.875 21.7245C25.4583 22.6714 24.8875 23.5 24.1625 24.2102C23.4375 24.9204 22.5917 25.4796 21.625 25.8878C20.6583 26.2959 19.6167 26.5 18.5 26.5Z" fill="black"/>
<path d="M47.8636 15C47.7386 14.6174 47.5739 14.2746 47.3693 13.9716C47.1686 13.6648 46.928 13.4034 46.6477 13.1875C46.3712 12.9716 46.0568 12.8068 45.7045 12.6932C45.3523 12.5795 44.9659 12.5227 44.5455 12.5227C43.8561 12.5227 43.2292 12.7008 42.6648 13.0568C42.1004 13.4129 41.6515 13.9375 41.3182 14.6307C40.9848 15.3239 40.8182 16.1742 40.8182 17.1818C40.8182 18.1894 40.9867 19.0398 41.3239 19.733C41.661 20.4261 42.1174 20.9508 42.6932 21.3068C43.2689 21.6629 43.9167 21.8409 44.6364 21.8409C45.303 21.8409 45.8902 21.6989 46.3977 21.4148C46.9091 21.1269 47.3068 20.7216 47.5909 20.1989C47.8788 19.6723 48.0227 19.053 48.0227 18.3409L48.4545 18.4318H44.9545V17.1818H49.3864V18.4318C49.3864 19.3902 49.1818 20.2235 48.7727 20.9318C48.3674 21.6402 47.8068 22.1894 47.0909 22.5795C46.3788 22.9659 45.5606 23.1591 44.6364 23.1591C43.6061 23.1591 42.7008 22.9167 41.9205 22.4318C41.1439 21.947 40.5379 21.2576 40.1023 20.3636C39.6705 19.4697 39.4545 18.4091 39.4545 17.1818C39.4545 16.2614 39.5777 15.4337 39.8239 14.6989C40.0739 13.9602 40.4261 13.3314 40.8807 12.8125C41.3352 12.2936 41.8731 11.8958 42.4943 11.6193C43.1155 11.3428 43.7992 11.2045 44.5455 11.2045C45.1591 11.2045 45.7311 11.2973 46.2614 11.483C46.7955 11.6648 47.2708 11.9242 47.6875 12.2614C48.108 12.5947 48.4583 12.9943 48.7386 13.4602C49.0189 13.9223 49.2121 14.4356 49.3182 15H47.8636ZM55.1634 23.1818C54.3755 23.1818 53.6842 22.9943 53.0895 22.6193C52.4986 22.2443 52.0365 21.7197 51.7031 21.0455C51.3736 20.3712 51.2088 19.5833 51.2088 18.6818C51.2088 17.7727 51.3736 16.9792 51.7031 16.3011C52.0365 15.6231 52.4986 15.0966 53.0895 14.7216C53.6842 14.3466 54.3755 14.1591 55.1634 14.1591C55.9512 14.1591 56.6406 14.3466 57.2315 14.7216C57.8262 15.0966 58.2884 15.6231 58.6179 16.3011C58.9512 16.9792 59.1179 17.7727 59.1179 18.6818C59.1179 19.5833 58.9512 20.3712 58.6179 21.0455C58.2884 21.7197 57.8262 22.2443 57.2315 22.6193C56.6406 22.9943 55.9512 23.1818 55.1634 23.1818ZM55.1634 21.9773C55.7618 21.9773 56.2543 21.8239 56.6406 21.517C57.027 21.2102 57.313 20.8068 57.4986 20.3068C57.6842 19.8068 57.777 19.2652 57.777 18.6818C57.777 18.0985 57.6842 17.5549 57.4986 17.0511C57.313 16.5473 57.027 16.1402 56.6406 15.8295C56.2543 15.5189 55.7618 15.3636 55.1634 15.3636C54.5649 15.3636 54.0724 15.5189 53.6861 15.8295C53.2997 16.1402 53.0137 16.5473 52.8281 17.0511C52.6425 17.5549 52.5497 18.0985 52.5497 18.6818C52.5497 19.2652 52.6425 19.8068 52.8281 20.3068C53.0137 20.8068 53.2997 21.2102 53.6861 21.517C54.0724 21.8239 54.5649 21.9773 55.1634 21.9773ZM65.8466 23V11.3636H69.9148C70.7254 11.3636 71.3939 11.5038 71.9205 11.7841C72.447 12.0606 72.839 12.4337 73.0966 12.9034C73.3542 13.3693 73.483 13.8864 73.483 14.4545C73.483 14.9545 73.3939 15.3674 73.2159 15.6932C73.0417 16.0189 72.8106 16.2765 72.5227 16.4659C72.2386 16.6553 71.9299 16.7955 71.5966 16.8864V17C71.9527 17.0227 72.3106 17.1477 72.6705 17.375C73.0303 17.6023 73.3314 17.928 73.5739 18.3523C73.8163 18.7765 73.9375 19.2955 73.9375 19.9091C73.9375 20.4924 73.8049 21.017 73.5398 21.483C73.2746 21.9489 72.8561 22.3182 72.2841 22.5909C71.7121 22.8636 70.9678 23 70.0511 23H65.8466ZM67.2557 21.75H70.0511C70.9716 21.75 71.625 21.572 72.0114 21.2159C72.4015 20.8561 72.5966 20.4205 72.5966 19.9091C72.5966 19.5152 72.4962 19.1515 72.2955 18.8182C72.0947 18.4811 71.8087 18.2121 71.4375 18.0114C71.0663 17.8068 70.6269 17.7045 70.1193 17.7045H67.2557V21.75ZM67.2557 16.4773H69.8693C70.2936 16.4773 70.6761 16.3939 71.017 16.2273C71.3617 16.0606 71.6345 15.8258 71.8352 15.5227C72.0398 15.2197 72.142 14.8636 72.142 14.4545C72.142 13.9432 71.964 13.5095 71.608 13.1534C71.2519 12.7936 70.6875 12.6136 69.9148 12.6136H67.2557V16.4773ZM78.6392 23.2045C78.0862 23.2045 77.5843 23.1004 77.1335 22.892C76.6828 22.6799 76.3248 22.375 76.0597 21.9773C75.7945 21.5758 75.6619 21.0909 75.6619 20.5227C75.6619 20.0227 75.7604 19.6174 75.9574 19.3068C76.1544 18.9924 76.4176 18.7462 76.7472 18.5682C77.0767 18.3902 77.4403 18.2576 77.8381 18.1705C78.2396 18.0795 78.643 18.0076 79.0483 17.9545C79.5786 17.8864 80.0085 17.8352 80.3381 17.8011C80.6714 17.7633 80.9138 17.7008 81.0653 17.6136C81.2206 17.5265 81.2983 17.375 81.2983 17.1591V17.1136C81.2983 16.553 81.1449 16.1174 80.8381 15.8068C80.535 15.4962 80.0748 15.3409 79.4574 15.3409C78.8172 15.3409 78.3153 15.4811 77.9517 15.7614C77.5881 16.0417 77.3324 16.3409 77.1847 16.6591L75.9119 16.2045C76.1392 15.6742 76.4422 15.2614 76.821 14.9659C77.2036 14.6667 77.6203 14.4583 78.071 14.3409C78.5256 14.2197 78.9725 14.1591 79.4119 14.1591C79.6922 14.1591 80.0142 14.1932 80.3778 14.2614C80.7453 14.3258 81.0994 14.4602 81.4403 14.6648C81.785 14.8693 82.071 15.178 82.2983 15.5909C82.5256 16.0038 82.6392 16.5568 82.6392 17.25V23H81.2983V21.8182H81.2301C81.1392 22.0076 80.9877 22.2102 80.7756 22.4261C80.5634 22.642 80.2813 22.8258 79.929 22.9773C79.5767 23.1288 79.1468 23.2045 78.6392 23.2045ZM78.8438 22C79.3741 22 79.821 21.8958 80.1847 21.6875C80.5521 21.4792 80.8286 21.2102 81.0142 20.8807C81.2036 20.5511 81.2983 20.2045 81.2983 19.8409V18.6136C81.2415 18.6818 81.1165 18.7443 80.9233 18.8011C80.7339 18.8542 80.5142 18.9015 80.2642 18.9432C80.018 18.9811 79.7775 19.0152 79.5426 19.0455C79.3116 19.072 79.1241 19.0947 78.9801 19.1136C78.6316 19.1591 78.3059 19.233 78.0028 19.3352C77.7036 19.4337 77.4612 19.5833 77.2756 19.7841C77.0938 19.9811 77.0028 20.25 77.0028 20.5909C77.0028 21.0568 77.1752 21.4091 77.5199 21.6477C77.8684 21.8826 78.3097 22 78.8438 22ZM88.6321 23.1818C87.8139 23.1818 87.1094 22.9886 86.5185 22.6023C85.9276 22.2159 85.473 21.6837 85.1548 21.0057C84.8366 20.3277 84.6776 19.553 84.6776 18.6818C84.6776 17.7955 84.8404 17.0133 85.1662 16.3352C85.4957 15.6534 85.9541 15.1212 86.5412 14.7386C87.1321 14.3523 87.8215 14.1591 88.6094 14.1591C89.223 14.1591 89.776 14.2727 90.2685 14.5C90.7609 14.7273 91.1643 15.0455 91.4787 15.4545C91.7931 15.8636 91.9882 16.3409 92.0639 16.8864H90.723C90.6207 16.4886 90.3935 16.1364 90.0412 15.8295C89.6927 15.5189 89.223 15.3636 88.6321 15.3636C88.1094 15.3636 87.651 15.5 87.2571 15.7727C86.867 16.0417 86.562 16.4223 86.3423 16.9148C86.1264 17.4034 86.0185 17.9773 86.0185 18.6364C86.0185 19.3106 86.1245 19.8977 86.3366 20.3977C86.5526 20.8977 86.8556 21.286 87.2457 21.5625C87.6397 21.839 88.1018 21.9773 88.6321 21.9773C88.9806 21.9773 89.2969 21.9167 89.581 21.7955C89.8651 21.6742 90.1056 21.5 90.3026 21.2727C90.4995 21.0455 90.6397 20.7727 90.723 20.4545H92.0639C91.9882 20.9697 91.8007 21.4337 91.5014 21.8466C91.206 22.2557 90.8139 22.5814 90.3253 22.8239C89.8404 23.0625 89.276 23.1818 88.6321 23.1818ZM95.2741 19.8182L95.2514 18.1591H95.5241L99.3423 14.2727H101.001L96.9332 18.3864H96.8196L95.2741 19.8182ZM94.0241 23V11.3636H95.3651V23H94.0241ZM99.5696 23L96.1605 18.6818L97.1151 17.75L101.274 23H99.5696Z" fill="black"/>
</g>
<defs>
<filter id="filter0_d_102_30" x="0.5" y="0.5" width="111" height="34" filterUnits="userSpaceOnUse" color-interpolation-filters="sRGB">
<feFlood flood-opacity="0" result="BackgroundImageFix"/>
<feColorMatrix in="SourceAlpha" type="matrix" values="0 0 0 0 0 0 0 0 0 0 0 0 0 0 0 0 0 0 127 0" result="hardAlpha"/>
<feOffset/>
<feGaussianBlur stdDeviation="2"/>
<feComposite in2="hardAlpha" operator="out"/>
<feColorMatrix type="matrix" values="0 0 0 0 0 0 0 0 0 0 0 0 0 0 0 0 0 0 0.25 0"/>
<feBlend mode="normal" in2="BackgroundImageFix" result="effect1_dropShadow_102_30"/>
<feBlend mode="normal" in="SourceGraphic" in2="effect1_dropShadow_102_30" result="shape"/>
</filter>
</defs>
</svg>
