<svg version="1.1" id="Layer_1" xmlns="http://www.w3.org/2000/svg" xmlns:xlink="http://www.w3.org/1999/xlink" x="0px" y="0px"
	 width="100%" viewBox="0 0 646 145" enable-background="new 0 0 646 145" xml:space="preserve">
<path fill="#FFFFFF" opacity="1.000000" stroke="none" 
	d="
M431.000000,146.000000 
	C287.378571,146.000000 144.257156,146.000000 1.067866,146.000000 
	C1.067866,97.727264 1.067866,49.454411 1.067866,1.090778 
	C216.333313,1.090778 431.666656,1.090778 646.965820,1.090778 
	C646.965820,49.409435 646.965820,97.704735 646.965820,146.000000 
	C575.121155,146.000000 503.310577,146.000000 431.000000,146.000000 
M598.452271,76.875648 
	C600.902588,76.875648 603.352966,76.875648 606.422485,76.875648 
	C606.422485,93.304558 606.422485,109.168861 606.422485,125.029060 
	C610.812195,125.029060 614.569275,125.029060 618.358765,125.029060 
	C618.358765,89.180069 618.358765,53.625095 618.358765,17.927879 
	C614.304382,17.927879 610.547668,17.927879 606.219360,17.927879 
	C606.219360,33.723392 606.219360,49.278381 606.219360,65.054886 
	C585.596313,65.054886 565.548340,65.054886 544.991455,65.054886 
	C544.991455,49.201454 544.991455,33.635174 544.991455,18.006386 
	C540.737488,18.006386 537.000916,18.006386 533.306030,18.006386 
	C533.306030,53.883301 533.306030,89.430573 533.306030,124.934006 
	C537.357727,124.934006 541.071106,124.934006 545.191223,124.934006 
	C545.191223,108.792908 545.191223,93.036079 545.191223,76.875542 
	C562.893433,76.875542 580.179565,76.875542 598.452271,76.875648 
M144.555634,125.171471 
	C167.822327,125.171471 191.089005,125.171471 214.571930,125.171471 
	C214.571930,121.221474 214.571930,117.826141 214.571930,113.841141 
	C192.594086,113.841141 170.892319,113.841141 149.310669,113.841141 
	C149.310669,101.148193 149.310669,89.049438 149.310669,76.440956 
	C168.680649,76.440956 187.755569,76.440956 206.788910,76.440956 
	C206.788910,72.528320 206.788910,69.137848 206.788910,65.184097 
	C187.374374,65.184097 168.335602,65.184097 149.258148,65.184097 
	C149.258148,52.843727 149.258148,41.085991 149.258148,28.782932 
	C170.881226,28.782932 192.263885,28.782932 213.649963,28.782932 
	C213.649963,24.832767 213.649963,21.442572 213.649963,18.056652 
	C188.028412,18.056652 162.767380,18.056652 137.315308,18.056652 
	C137.315308,53.812561 137.315308,89.340378 137.315308,125.171570 
	C139.613083,125.171570 141.591995,125.171570 144.555634,125.171471 
M457.004608,30.244320 
	C462.902222,33.797291 468.799866,37.350262 474.989410,41.079090 
	C477.259033,38.619644 479.706299,35.967724 482.117065,33.355312 
	C468.371399,17.001698 441.257538,11.094567 420.467285,19.672857 
	C398.357452,28.795605 385.247406,51.290176 387.131775,76.870857 
	C388.866241,100.417137 405.339600,120.286339 427.792114,125.601357 
	C448.043030,130.395218 470.825592,123.264862 481.961121,108.349136 
	C479.534821,105.737938 477.192139,103.216751 474.729462,100.566406 
	C472.076416,102.765091 469.493500,105.104935 466.710968,107.176666 
	C455.398682,115.599396 442.715454,118.019379 429.398865,113.815483 
	C409.279633,107.464073 399.302734,91.765839 399.483612,71.309395 
	C399.791504,36.479454 429.901062,19.749826 457.004608,30.244320 
M42.562099,29.002211 
	C61.158409,29.002211 79.754715,29.002211 98.535645,29.002211 
	C98.535645,25.061182 98.535645,21.672413 98.535645,18.093388 
	C72.989395,18.093388 47.762684,18.093388 22.349476,18.093388 
	C22.349476,53.845837 22.349476,89.353470 22.349476,124.744919 
	C26.433554,124.744919 30.159081,124.744919 34.283722,124.744919 
	C34.283722,109.091774 34.283722,93.839569 34.283722,77.980026 
	C53.709064,77.980026 72.731346,77.980026 91.702072,77.980026 
	C91.702072,74.101303 91.702072,70.847610 91.702072,67.116608 
	C72.509888,67.116608 53.611210,67.116608 34.436607,67.116608 
	C34.436607,54.244942 34.436607,41.863129 34.436607,29.002211 
	C37.006527,29.002211 39.296513,29.002211 42.562099,29.002211 
M338.419739,17.735756 
	C313.490143,17.735756 288.560547,17.735756 263.710205,17.735756 
	C263.710205,21.832823 263.710205,25.269234 263.710205,29.162445 
	C275.618225,29.162445 287.211304,29.162445 299.219971,29.162445 
	C299.219971,61.370197 299.219971,93.117149 299.219971,124.937889 
	C303.563690,124.937889 307.472351,124.937889 311.837830,124.937889 
	C311.837830,92.871666 311.837830,61.129677 311.837830,28.884066 
	C323.851715,28.884066 335.413513,28.884066 347.264404,28.884066 
	C347.264404,26.725288 347.264374,25.074648 347.264374,23.424006 
	C347.264374,21.639675 347.264404,19.855347 347.264404,17.736322 
	C344.327667,17.736322 341.856995,17.736322 338.419739,17.735756 
z"/>
<path fill="#FFCF1D" opacity="1.000000" stroke="none" 
	d="
M597.958984,76.875595 
	C580.179565,76.875542 562.893433,76.875542 545.191223,76.875542 
	C545.191223,93.036079 545.191223,108.792908 545.191223,124.934006 
	C541.071106,124.934006 537.357727,124.934006 533.306030,124.934006 
	C533.306030,89.430573 533.306030,53.883301 533.306030,18.006386 
	C537.000916,18.006386 540.737488,18.006386 544.991455,18.006386 
	C544.991455,33.635174 544.991455,49.201454 544.991455,65.054886 
	C565.548340,65.054886 585.596313,65.054886 606.219360,65.054886 
	C606.219360,49.278381 606.219360,33.723392 606.219360,17.927879 
	C610.547668,17.927879 614.304382,17.927879 618.358765,17.927879 
	C618.358765,53.625095 618.358765,89.180069 618.358765,125.029060 
	C614.569275,125.029060 610.812195,125.029060 606.422485,125.029060 
	C606.422485,109.168861 606.422485,93.304558 606.422485,76.875648 
	C603.352966,76.875648 600.902588,76.875648 597.958984,76.875595 
z"/>
<path fill="#FA4A40" opacity="1.000000" stroke="none" 
	d="
M144.063263,125.171524 
	C141.591995,125.171570 139.613083,125.171570 137.315308,125.171570 
	C137.315308,89.340378 137.315308,53.812561 137.315308,18.056652 
	C162.767380,18.056652 188.028412,18.056652 213.649963,18.056652 
	C213.649963,21.442572 213.649963,24.832767 213.649963,28.782932 
	C192.263885,28.782932 170.881226,28.782932 149.258148,28.782932 
	C149.258148,41.085991 149.258148,52.843727 149.258148,65.184097 
	C168.335602,65.184097 187.374374,65.184097 206.788910,65.184097 
	C206.788910,69.137848 206.788910,72.528320 206.788910,76.440956 
	C187.755569,76.440956 168.680649,76.440956 149.310669,76.440956 
	C149.310669,89.049438 149.310669,101.148193 149.310669,113.841141 
	C170.892319,113.841141 192.594086,113.841141 214.571930,113.841141 
	C214.571930,117.826141 214.571930,121.221474 214.571930,125.171471 
	C191.089005,125.171471 167.822327,125.171471 144.063263,125.171524 
z"/>
<path fill="#FFCE18" opacity="1.000000" stroke="none" 
	d="
M456.634033,30.112635 
	C429.901062,19.749826 399.791504,36.479454 399.483612,71.309395 
	C399.302734,91.765839 409.279633,107.464073 429.398865,113.815483 
	C442.715454,118.019379 455.398682,115.599396 466.710968,107.176666 
	C469.493500,105.104935 472.076416,102.765091 474.729462,100.566406 
	C477.192139,103.216751 479.534821,105.737938 481.961121,108.349136 
	C470.825592,123.264862 448.043030,130.395218 427.792114,125.601357 
	C405.339600,120.286339 388.866241,100.417137 387.131775,76.870857 
	C385.247406,51.290176 398.357452,28.795605 420.467285,19.672857 
	C441.257538,11.094567 468.371399,17.001698 482.117065,33.355312 
	C479.706299,35.967724 477.259033,38.619644 474.989410,41.079090 
	C468.799866,37.350262 462.902222,33.797291 456.634033,30.112635 
z"/>
<path fill="#49989E" opacity="1.000000" stroke="none" 
	d="
M42.074303,29.002211 
	C39.296513,29.002211 37.006527,29.002211 34.436607,29.002211 
	C34.436607,41.863129 34.436607,54.244942 34.436607,67.116608 
	C53.611210,67.116608 72.509888,67.116608 91.702072,67.116608 
	C91.702072,70.847610 91.702072,74.101303 91.702072,77.980026 
	C72.731346,77.980026 53.709064,77.980026 34.283722,77.980026 
	C34.283722,93.839569 34.283722,109.091774 34.283722,124.744919 
	C30.159081,124.744919 26.433554,124.744919 22.349476,124.744919 
	C22.349476,89.353470 22.349476,53.845837 22.349476,18.093388 
	C47.762684,18.093388 72.989395,18.093388 98.535645,18.093388 
	C98.535645,21.672413 98.535645,25.061182 98.535645,29.002211 
	C79.754715,29.002211 61.158409,29.002211 42.074303,29.002211 
z"/>
<path fill="#FA4D43" opacity="1.000000" stroke="none" 
	d="
M338.903046,17.736038 
	C341.856995,17.736322 344.327667,17.736322 347.264404,17.736322 
	C347.264404,19.855347 347.264374,21.639675 347.264374,23.424006 
	C347.264374,25.074648 347.264404,26.725288 347.264404,28.884066 
	C335.413513,28.884066 323.851715,28.884066 311.837830,28.884066 
	C311.837830,61.129677 311.837830,92.871666 311.837830,124.937889 
	C307.472351,124.937889 303.563690,124.937889 299.219971,124.937889 
	C299.219971,93.117149 299.219971,61.370197 299.219971,29.162445 
	C287.211304,29.162445 275.618225,29.162445 263.710205,29.162445 
	C263.710205,25.269234 263.710205,21.832823 263.710205,17.735756 
	C288.560547,17.735756 313.490143,17.735756 338.903046,17.736038 
z"/>
</svg>