<svg width="1512" height="982" viewBox="0 0 1512 982" fill="none" xmlns="http://www.w3.org/2000/svg">
<rect width="1512" height="982" fill="white"/>
<path d="M875.762 291.968C911.315 315.474 917.935 363.091 940.906 399.002C965.732 437.813 1004.86 466.89 1016.22 511.544C1029.95 565.5 1050.52 635.756 1011.16 675.114C970.003 716.262 898.306 679.992 840.564 687.166C800.043 692.2 762.899 719.238 722.921 710.924C682.97 702.615 659.198 663.847 624.574 642.246C577.643 612.967 504.218 612.807 483.45 561.523C463.338 511.861 503.345 457.245 531.094 411.413C555.111 371.745 591.661 343.423 630.67 318.368C666.941 295.072 705.635 276.399 748.49 271.783C792.079 267.088 839.186 267.785 875.762 291.968Z" fill="#FAFAFA"/>
<path d="M802.243 411.175C795.561 404.582 787.939 399.387 779.377 395.589C770.815 391.792 761.648 389.893 751.875 389.893C749.703 389.893 747.552 389.998 745.422 390.206C743.292 390.415 741.517 390.686 740.097 391.02L736.589 387.64C738.343 387.139 740.473 386.743 742.979 386.451C745.485 386.159 748.45 386.013 751.875 386.013C762.316 386.013 772.047 388.016 781.069 392.022C790.09 396.028 798.067 401.536 805 408.546L802.243 411.175ZM781.946 431.33C780.86 430.329 779.899 429.494 779.064 428.826C778.229 428.159 777.143 427.491 775.806 426.823L768.915 419.813C770.836 420.314 773.112 421.399 775.744 423.068C778.375 424.737 781.027 426.907 783.7 429.577L781.946 431.33ZM792.345 460.624L751.749 419.938C746.153 420.022 740.786 421.19 735.649 423.443C730.512 425.697 726.189 428.701 722.681 432.457L720.05 429.828C723.558 426.239 727.714 423.172 732.517 420.627C737.32 418.081 742.478 416.558 747.991 416.057L726.565 394.776C722.556 396.194 718.254 398.427 713.66 401.473C709.065 404.519 705.014 407.753 701.506 411.175L699 408.546C702.675 404.874 706.685 401.515 711.028 398.469C715.372 395.423 719.465 393.107 723.307 391.521L711.279 379.503L713.284 377.5L794.475 458.621L792.345 460.624ZM751.875 461.5L740.974 450.609C742.394 449.19 744.023 448.084 745.861 447.291C747.698 446.498 749.703 446.102 751.875 446.102C754.046 446.102 756.051 446.498 757.889 447.291C759.727 448.084 761.355 449.19 762.775 450.609L751.875 461.5Z" fill="#222222"/>
<g filter="url(#filter0_d_23_431)">
<path d="M706.35 497.424V502.5H704.253V497.424L699.519 489.54H701.364C701.55 489.54 701.697 489.585 701.805 489.675C701.913 489.765 702.003 489.879 702.075 490.017L704.73 494.661C704.85 494.895 704.958 495.117 705.054 495.327C705.156 495.537 705.246 495.744 705.324 495.948C705.39 495.738 705.471 495.531 705.567 495.327C705.663 495.117 705.771 494.895 705.891 494.661L708.528 490.017C708.588 489.897 708.675 489.789 708.789 489.693C708.903 489.591 709.05 489.54 709.23 489.54H711.084L706.35 497.424ZM714.178 493.176C714.856 493.176 715.468 493.287 716.014 493.509C716.566 493.731 717.034 494.046 717.418 494.454C717.808 494.862 718.108 495.357 718.318 495.939C718.528 496.521 718.633 497.175 718.633 497.901C718.633 498.627 718.528 499.281 718.318 499.863C718.108 500.445 717.808 500.943 717.418 501.357C717.034 501.765 716.566 502.08 716.014 502.302C715.468 502.524 714.856 502.635 714.178 502.635C713.494 502.635 712.876 502.524 712.324 502.302C711.778 502.08 711.31 501.765 710.92 501.357C710.53 500.943 710.23 500.445 710.02 499.863C709.81 499.281 709.705 498.627 709.705 497.901C709.705 497.175 709.81 496.521 710.02 495.939C710.23 495.357 710.53 494.862 710.92 494.454C711.31 494.046 711.778 493.731 712.324 493.509C712.876 493.287 713.494 493.176 714.178 493.176ZM714.178 501.123C715.006 501.123 715.621 500.847 716.023 500.295C716.431 499.737 716.635 498.942 716.635 497.91C716.635 496.878 716.431 496.083 716.023 495.525C715.621 494.961 715.006 494.679 714.178 494.679C713.338 494.679 712.714 494.961 712.306 495.525C711.898 496.083 711.694 496.878 711.694 497.91C711.694 498.942 711.898 499.737 712.306 500.295C712.714 500.847 713.338 501.123 714.178 501.123ZM728.232 493.32V502.5H727.062C726.804 502.5 726.639 502.377 726.567 502.131L726.423 501.276C726.231 501.48 726.027 501.666 725.811 501.834C725.601 502.002 725.376 502.146 725.136 502.266C724.896 502.386 724.638 502.479 724.362 502.545C724.092 502.611 723.801 502.644 723.489 502.644C722.985 502.644 722.541 502.56 722.157 502.392C721.773 502.224 721.449 501.987 721.185 501.681C720.927 501.375 720.732 501.009 720.6 500.583C720.468 500.151 720.402 499.677 720.402 499.161V493.32H722.337V499.161C722.337 499.779 722.478 500.259 722.76 500.601C723.048 500.943 723.483 501.114 724.065 501.114C724.491 501.114 724.887 501.018 725.253 500.826C725.625 500.628 725.973 500.358 726.297 500.016V493.32H728.232ZM731.905 488.676C732.175 489.132 732.358 489.609 732.454 490.107C732.55 490.599 732.559 491.088 732.481 491.574C732.403 492.054 732.238 492.516 731.986 492.96C731.74 493.404 731.41 493.8 730.996 494.148L730.393 493.779C730.291 493.713 730.243 493.629 730.249 493.527C730.261 493.419 730.297 493.335 730.357 493.275C730.495 493.107 730.621 492.894 730.735 492.636C730.849 492.378 730.924 492.096 730.96 491.79C731.002 491.478 730.993 491.151 730.933 490.809C730.879 490.467 730.75 490.128 730.546 489.792C730.45 489.636 730.423 489.501 730.465 489.387C730.507 489.273 730.594 489.192 730.726 489.144L731.905 488.676ZM736.312 495.021C736.6 494.439 736.948 493.983 737.356 493.653C737.764 493.317 738.253 493.149 738.823 493.149C739.021 493.149 739.207 493.173 739.381 493.221C739.555 493.263 739.711 493.329 739.849 493.419L739.714 494.877C739.69 494.979 739.651 495.051 739.597 495.093C739.549 495.129 739.483 495.147 739.399 495.147C739.309 495.147 739.18 495.132 739.012 495.102C738.844 495.066 738.667 495.048 738.481 495.048C738.211 495.048 737.971 495.087 737.761 495.165C737.557 495.243 737.371 495.357 737.203 495.507C737.041 495.657 736.897 495.84 736.771 496.056C736.645 496.272 736.528 496.518 736.42 496.794V502.5H734.485V493.32H735.61C735.814 493.32 735.955 493.359 736.033 493.437C736.111 493.509 736.165 493.638 736.195 493.824L736.312 495.021ZM746.834 496.875C746.834 496.551 746.786 496.251 746.69 495.975C746.6 495.693 746.465 495.45 746.285 495.246C746.105 495.036 745.88 494.874 745.61 494.76C745.346 494.64 745.04 494.58 744.692 494.58C743.99 494.58 743.438 494.781 743.036 495.183C742.634 495.585 742.379 496.149 742.271 496.875H746.834ZM742.217 498.063C742.241 498.585 742.322 499.038 742.46 499.422C742.598 499.8 742.781 500.115 743.009 500.367C743.243 500.619 743.519 500.808 743.837 500.934C744.161 501.054 744.521 501.114 744.917 501.114C745.295 501.114 745.622 501.072 745.898 500.988C746.174 500.898 746.414 500.802 746.618 500.7C746.822 500.592 746.996 500.496 747.14 500.412C747.284 500.322 747.416 500.277 747.536 500.277C747.692 500.277 747.812 500.337 747.896 500.457L748.445 501.168C748.217 501.438 747.959 501.666 747.671 501.852C747.383 502.038 747.077 502.191 746.753 502.311C746.429 502.425 746.096 502.506 745.754 502.554C745.412 502.608 745.079 502.635 744.755 502.635C744.119 502.635 743.528 502.53 742.982 502.32C742.442 502.104 741.971 501.789 741.569 501.375C741.173 500.961 740.861 500.448 740.633 499.836C740.411 499.224 740.3 498.519 740.3 497.721C740.3 497.085 740.399 496.491 740.597 495.939C740.801 495.387 741.089 494.907 741.461 494.499C741.839 494.091 742.295 493.77 742.829 493.536C743.369 493.296 743.978 493.176 744.656 493.176C745.22 493.176 745.742 493.269 746.222 493.455C746.702 493.635 747.116 493.902 747.464 494.256C747.812 494.61 748.082 495.045 748.274 495.561C748.472 496.071 748.571 496.653 748.571 497.307C748.571 497.607 748.538 497.808 748.472 497.91C748.406 498.012 748.286 498.063 748.112 498.063H742.217ZM758.827 493.176C759.505 493.176 760.117 493.287 760.663 493.509C761.215 493.731 761.683 494.046 762.067 494.454C762.457 494.862 762.757 495.357 762.967 495.939C763.177 496.521 763.282 497.175 763.282 497.901C763.282 498.627 763.177 499.281 762.967 499.863C762.757 500.445 762.457 500.943 762.067 501.357C761.683 501.765 761.215 502.08 760.663 502.302C760.117 502.524 759.505 502.635 758.827 502.635C758.143 502.635 757.525 502.524 756.973 502.302C756.427 502.08 755.959 501.765 755.569 501.357C755.179 500.943 754.879 500.445 754.669 499.863C754.459 499.281 754.354 498.627 754.354 497.901C754.354 497.175 754.459 496.521 754.669 495.939C754.879 495.357 755.179 494.862 755.569 494.454C755.959 494.046 756.427 493.731 756.973 493.509C757.525 493.287 758.143 493.176 758.827 493.176ZM758.827 501.123C759.655 501.123 760.27 500.847 760.672 500.295C761.08 499.737 761.284 498.942 761.284 497.91C761.284 496.878 761.08 496.083 760.672 495.525C760.27 494.961 759.655 494.679 758.827 494.679C757.987 494.679 757.363 494.961 756.955 495.525C756.547 496.083 756.343 496.878 756.343 497.91C756.343 498.942 756.547 499.737 756.955 500.295C757.363 500.847 757.987 501.123 758.827 501.123ZM765.551 502.5V494.859L764.651 494.733C764.501 494.703 764.378 494.649 764.282 494.571C764.192 494.493 764.147 494.382 764.147 494.238V493.446H765.551V492.825C765.551 492.297 765.626 491.826 765.776 491.412C765.932 490.998 766.151 490.647 766.433 490.359C766.721 490.071 767.069 489.852 767.477 489.702C767.885 489.552 768.344 489.477 768.854 489.477C769.064 489.477 769.262 489.492 769.448 489.522C769.64 489.552 769.826 489.594 770.006 489.648L769.97 490.629C769.958 490.785 769.877 490.881 769.727 490.917C769.583 490.947 769.4 490.962 769.178 490.962C768.908 490.962 768.665 490.995 768.449 491.061C768.233 491.121 768.047 491.226 767.891 491.376C767.741 491.526 767.624 491.724 767.54 491.97C767.462 492.216 767.423 492.519 767.423 492.879V493.446H771.311V493.014C771.311 492.516 771.386 492.042 771.536 491.592C771.692 491.142 771.926 490.746 772.238 490.404C772.556 490.062 772.952 489.789 773.426 489.585C773.906 489.381 774.47 489.279 775.118 489.279C775.604 489.279 776.066 489.297 776.504 489.333C776.948 489.369 777.386 489.39 777.818 489.396H779.096V502.5H777.179V490.746C776.855 490.734 776.537 490.719 776.225 490.701C775.913 490.683 775.643 490.674 775.415 490.674C774.695 490.674 774.14 490.878 773.75 491.286C773.366 491.694 773.174 492.27 773.174 493.014V493.446H775.685V494.841H773.237V502.5H771.311V494.841H767.486V502.5H765.551ZM783.522 493.32V502.5H781.587V493.32H783.522ZM783.846 490.548C783.846 490.722 783.81 490.887 783.738 491.043C783.672 491.199 783.579 491.337 783.459 491.457C783.339 491.571 783.198 491.664 783.036 491.736C782.88 491.802 782.712 491.835 782.532 491.835C782.358 491.835 782.193 491.802 782.037 491.736C781.887 491.664 781.755 491.571 781.641 491.457C781.527 491.337 781.434 491.199 781.362 491.043C781.296 490.887 781.263 490.722 781.263 490.548C781.263 490.368 781.296 490.2 781.362 490.044C781.434 489.888 781.527 489.753 781.641 489.639C781.755 489.519 781.887 489.426 782.037 489.36C782.193 489.288 782.358 489.252 782.532 489.252C782.712 489.252 782.88 489.288 783.036 489.36C783.198 489.426 783.339 489.519 783.459 489.639C783.579 489.753 783.672 489.888 783.738 490.044C783.81 490.2 783.846 490.368 783.846 490.548ZM787.762 494.535C787.96 494.331 788.164 494.148 788.374 493.986C788.59 493.818 788.818 493.674 789.058 493.554C789.298 493.434 789.553 493.341 789.823 493.275C790.093 493.209 790.387 493.176 790.705 493.176C791.209 493.176 791.65 493.26 792.028 493.428C792.412 493.596 792.733 493.833 792.991 494.139C793.255 494.445 793.453 494.814 793.585 495.246C793.717 495.672 793.783 496.143 793.783 496.659V502.5H791.857V496.659C791.857 496.041 791.713 495.561 791.425 495.219C791.143 494.877 790.711 494.706 790.129 494.706C789.697 494.706 789.295 494.805 788.923 495.003C788.557 495.201 788.212 495.471 787.888 495.813V502.5H785.953V493.32H787.123C787.387 493.32 787.555 493.443 787.627 493.689L787.762 494.535ZM802.064 496.875C802.064 496.551 802.016 496.251 801.92 495.975C801.83 495.693 801.695 495.45 801.515 495.246C801.335 495.036 801.11 494.874 800.84 494.76C800.576 494.64 800.27 494.58 799.922 494.58C799.22 494.58 798.668 494.781 798.266 495.183C797.864 495.585 797.609 496.149 797.501 496.875H802.064ZM797.447 498.063C797.471 498.585 797.552 499.038 797.69 499.422C797.828 499.8 798.011 500.115 798.239 500.367C798.473 500.619 798.749 500.808 799.067 500.934C799.391 501.054 799.751 501.114 800.147 501.114C800.525 501.114 800.852 501.072 801.128 500.988C801.404 500.898 801.644 500.802 801.848 500.7C802.052 500.592 802.226 500.496 802.37 500.412C802.514 500.322 802.646 500.277 802.766 500.277C802.922 500.277 803.042 500.337 803.126 500.457L803.675 501.168C803.447 501.438 803.189 501.666 802.901 501.852C802.613 502.038 802.307 502.191 801.983 502.311C801.659 502.425 801.326 502.506 800.984 502.554C800.642 502.608 800.309 502.635 799.985 502.635C799.349 502.635 798.758 502.53 798.212 502.32C797.672 502.104 797.201 501.789 796.799 501.375C796.403 500.961 796.091 500.448 795.863 499.836C795.641 499.224 795.53 498.519 795.53 497.721C795.53 497.085 795.629 496.491 795.827 495.939C796.031 495.387 796.319 494.907 796.691 494.499C797.069 494.091 797.525 493.77 798.059 493.536C798.599 493.296 799.208 493.176 799.886 493.176C800.45 493.176 800.972 493.269 801.452 493.455C801.932 493.635 802.346 493.902 802.694 494.256C803.042 494.61 803.312 495.045 803.504 495.561C803.702 496.071 803.801 496.653 803.801 497.307C803.801 497.607 803.768 497.808 803.702 497.91C803.636 498.012 803.516 498.063 803.342 498.063H797.447Z" fill="black"/>
</g>
<path d="M569.032 547.5V534.409H573.065C573.896 534.409 574.608 534.58 575.2 534.92C575.797 535.261 576.255 535.728 576.574 536.32C576.894 536.913 577.054 537.588 577.054 538.347C577.054 539.097 576.894 539.768 576.574 540.36C576.255 540.952 575.797 541.421 575.2 541.766C574.608 542.107 573.898 542.278 573.071 542.278H569.594V541.536H573.052C573.726 541.536 574.301 541.4 574.778 541.127C575.255 540.85 575.622 540.473 575.878 539.996C576.133 539.514 576.261 538.964 576.261 538.347C576.261 537.724 576.133 537.173 575.878 536.691C575.622 536.21 575.253 535.832 574.772 535.56C574.294 535.287 573.719 535.151 573.046 535.151H569.831V547.5H569.032ZM580.628 534.409V547.5H579.849V534.409H580.628ZM587.685 547.705C586.799 547.705 586.028 547.485 585.371 547.046C584.715 546.607 584.208 546.006 583.85 545.244C583.492 544.481 583.313 543.612 583.313 542.636C583.313 541.656 583.492 540.782 583.85 540.015C584.212 539.248 584.709 538.643 585.339 538.2C585.97 537.756 586.69 537.535 587.5 537.535C588.05 537.535 588.57 537.646 589.06 537.867C589.554 538.085 589.989 538.4 590.364 538.813C590.743 539.227 591.039 539.725 591.252 540.309C591.469 540.893 591.578 541.549 591.578 542.278V542.763H583.805V542.054H590.798C590.798 541.342 590.653 540.701 590.364 540.13C590.074 539.559 589.68 539.105 589.181 538.768C588.682 538.432 588.122 538.263 587.5 538.263C586.848 538.263 586.266 538.447 585.755 538.813C585.248 539.175 584.845 539.665 584.547 540.283C584.253 540.901 584.099 541.592 584.087 542.354V542.674C584.087 543.492 584.229 544.227 584.515 544.879C584.805 545.527 585.218 546.04 585.755 546.42C586.292 546.795 586.935 546.982 587.685 546.982C588.222 546.982 588.68 546.893 589.06 546.714C589.443 546.531 589.756 546.309 589.999 546.049C590.242 545.789 590.425 545.538 590.549 545.295L591.258 545.582C591.109 545.911 590.877 546.239 590.562 546.567C590.251 546.891 589.854 547.161 589.373 547.379C588.896 547.596 588.333 547.705 587.685 547.705ZM596.864 547.711C596.297 547.711 595.778 547.598 595.305 547.372C594.836 547.146 594.459 546.816 594.173 546.381C593.892 545.947 593.751 545.418 593.751 544.796C593.751 544.387 593.824 544.027 593.969 543.716C594.114 543.405 594.337 543.136 594.64 542.911C594.942 542.685 595.33 542.499 595.803 542.354C596.276 542.205 596.841 542.09 597.497 542.009C597.996 541.95 598.441 541.892 598.833 541.837C599.225 541.777 599.532 541.685 599.753 541.562C599.979 541.438 600.092 541.251 600.092 540.999V540.59C600.092 539.874 599.866 539.305 599.415 538.884C598.963 538.462 598.341 538.251 597.548 538.251C596.845 538.251 596.253 538.406 595.771 538.717C595.294 539.024 594.959 539.42 594.768 539.906L594.033 539.631C594.22 539.163 594.491 538.773 594.844 538.462C595.202 538.151 595.611 537.918 596.072 537.765C596.536 537.612 597.022 537.535 597.529 537.535C597.968 537.535 598.386 537.597 598.782 537.72C599.182 537.844 599.538 538.031 599.849 538.283C600.165 538.534 600.414 538.856 600.597 539.248C600.78 539.636 600.872 540.1 600.872 540.641V547.5H600.092V545.729H600.035C599.864 546.096 599.63 546.43 599.332 546.733C599.038 547.031 598.682 547.27 598.264 547.449C597.851 547.624 597.384 547.711 596.864 547.711ZM596.941 546.989C597.555 546.989 598.098 546.839 598.571 546.541C599.048 546.239 599.421 545.825 599.69 545.301C599.958 544.777 600.092 544.183 600.092 543.518V542.073C599.994 542.158 599.851 542.235 599.664 542.303C599.481 542.367 599.272 542.425 599.038 542.476C598.807 542.523 598.565 542.565 598.309 542.604C598.057 542.638 597.812 542.67 597.574 542.7C596.858 542.785 596.274 542.917 595.822 543.096C595.375 543.271 595.047 543.501 594.838 543.786C594.633 544.072 594.531 544.417 594.531 544.822C594.531 545.491 594.761 546.019 595.222 546.407C595.682 546.795 596.255 546.989 596.941 546.989ZM610.38 539.798L609.658 539.989C609.543 539.631 609.379 539.322 609.166 539.062C608.953 538.803 608.684 538.602 608.36 538.462C608.041 538.317 607.657 538.244 607.21 538.244C606.49 538.244 605.899 538.423 605.439 538.781C604.983 539.139 604.755 539.606 604.755 540.181C604.755 540.65 604.911 541.038 605.222 541.344C605.533 541.647 606.008 541.877 606.647 542.035L608.156 542.412C608.931 542.604 609.515 542.915 609.907 543.345C610.299 543.771 610.495 544.302 610.495 544.937C610.495 545.478 610.348 545.957 610.054 546.375C609.76 546.793 609.353 547.119 608.833 547.353C608.318 547.587 607.717 547.705 607.031 547.705C606.115 547.705 605.362 547.491 604.774 547.065C604.186 546.635 603.809 546.019 603.643 545.218L604.391 545.026C604.532 545.665 604.823 546.153 605.267 546.49C605.714 546.822 606.3 546.989 607.024 546.989C607.826 546.989 608.471 546.799 608.961 546.42C609.456 546.04 609.703 545.555 609.703 544.962C609.703 544.511 609.558 544.129 609.268 543.818C608.978 543.507 608.539 543.279 607.951 543.134L606.385 542.751C605.584 542.555 604.983 542.241 604.583 541.811C604.182 541.376 603.982 540.842 603.982 540.207C603.982 539.678 604.12 539.214 604.397 538.813C604.674 538.413 605.056 538.099 605.541 537.874C606.027 537.648 606.583 537.535 607.21 537.535C608.041 537.535 608.718 537.731 609.242 538.123C609.767 538.515 610.146 539.073 610.38 539.798ZM617.023 547.705C616.137 547.705 615.366 547.485 614.709 547.046C614.053 546.607 613.546 546.006 613.188 545.244C612.83 544.481 612.651 543.612 612.651 542.636C612.651 541.656 612.83 540.782 613.188 540.015C613.55 539.248 614.047 538.643 614.677 538.2C615.308 537.756 616.028 537.535 616.838 537.535C617.388 537.535 617.907 537.646 618.397 537.867C618.892 538.085 619.326 538.4 619.701 538.813C620.081 539.227 620.377 539.725 620.59 540.309C620.807 540.893 620.916 541.549 620.916 542.278V542.763H613.143V542.054H620.136C620.136 541.342 619.991 540.701 619.701 540.13C619.412 539.559 619.017 539.105 618.519 538.768C618.02 538.432 617.46 538.263 616.838 538.263C616.186 538.263 615.604 538.447 615.093 538.813C614.586 539.175 614.183 539.665 613.885 540.283C613.591 540.901 613.437 541.592 613.424 542.354V542.674C613.424 543.492 613.567 544.227 613.853 544.879C614.142 545.527 614.556 546.04 615.093 546.42C615.63 546.795 616.273 546.982 617.023 546.982C617.56 546.982 618.018 546.893 618.397 546.714C618.781 546.531 619.094 546.309 619.337 546.049C619.58 545.789 619.763 545.538 619.887 545.295L620.596 545.582C620.447 545.911 620.215 546.239 619.9 546.567C619.589 546.891 619.192 547.161 618.711 547.379C618.233 547.596 617.671 547.705 617.023 547.705ZM632.345 547.705C631.51 547.705 630.775 547.485 630.14 547.046C629.505 546.603 629.008 545.998 628.65 545.231C628.297 544.464 628.12 543.594 628.12 542.623C628.12 541.651 628.299 540.782 628.657 540.015C629.015 539.248 629.511 538.643 630.146 538.2C630.781 537.756 631.512 537.535 632.339 537.535C632.961 537.535 633.527 537.663 634.039 537.918C634.554 538.174 634.981 538.53 635.317 538.986C635.658 539.442 635.875 539.97 635.969 540.571H635.177C635.049 539.906 634.729 539.357 634.218 538.922C633.711 538.483 633.086 538.263 632.345 538.263C631.68 538.263 631.088 538.451 630.568 538.826C630.048 539.197 629.639 539.71 629.341 540.366C629.042 541.018 628.893 541.766 628.893 542.61C628.893 543.441 629.038 544.187 629.328 544.847C629.618 545.504 630.022 546.023 630.542 546.407C631.062 546.79 631.663 546.982 632.345 546.982C632.826 546.982 633.265 546.886 633.662 546.695C634.062 546.503 634.397 546.23 634.665 545.876C634.934 545.523 635.111 545.109 635.196 544.636H635.988C635.895 545.241 635.682 545.774 635.349 546.234C635.017 546.695 634.593 547.055 634.077 547.315C633.562 547.575 632.984 547.705 632.345 547.705ZM642.297 547.705C641.488 547.705 640.767 547.487 640.137 547.053C639.506 546.614 639.01 546.011 638.647 545.244C638.285 544.477 638.104 543.603 638.104 542.623C638.104 541.638 638.285 540.765 638.647 540.002C639.01 539.235 639.506 538.632 640.137 538.193C640.767 537.754 641.488 537.535 642.297 537.535C643.107 537.535 643.827 537.754 644.458 538.193C645.089 538.632 645.585 539.235 645.947 540.002C646.309 540.769 646.491 541.643 646.491 542.623C646.491 543.603 646.309 544.477 645.947 545.244C645.585 546.011 645.089 546.614 644.458 547.053C643.827 547.487 643.107 547.705 642.297 547.705ZM642.297 546.982C642.983 546.982 643.582 546.788 644.093 546.401C644.609 546.013 645.008 545.489 645.289 544.828C645.574 544.168 645.717 543.433 645.717 542.623C645.717 541.813 645.574 541.08 645.289 540.424C645.003 539.763 644.605 539.239 644.093 538.852C643.582 538.46 642.983 538.263 642.297 538.263C641.611 538.263 641.013 538.46 640.501 538.852C639.99 539.239 639.591 539.763 639.306 540.424C639.02 541.08 638.878 541.813 638.878 542.623C638.878 543.433 639.018 544.168 639.299 544.828C639.585 545.489 639.983 546.013 640.495 546.401C641.01 546.788 641.611 546.982 642.297 546.982ZM649.957 541.134V547.5H649.177V537.682H649.937V539.235H650.014C650.244 538.728 650.613 538.321 651.12 538.014C651.627 537.707 652.23 537.554 652.929 537.554C653.589 537.554 654.169 537.695 654.668 537.976C655.17 538.257 655.562 538.658 655.844 539.178C656.129 539.693 656.272 540.309 656.272 541.025V547.5H655.492V541.057C655.492 540.222 655.243 539.55 654.744 539.043C654.25 538.532 653.596 538.276 652.782 538.276C652.236 538.276 651.751 538.396 651.324 538.634C650.898 538.873 650.564 539.207 650.321 539.638C650.078 540.064 649.957 540.562 649.957 541.134ZM660.293 541.134V547.5H659.513V537.682H660.273V539.235H660.35C660.58 538.728 660.949 538.321 661.456 538.014C661.963 537.707 662.566 537.554 663.265 537.554C663.925 537.554 664.505 537.695 665.003 537.976C665.506 538.257 665.898 538.658 666.18 539.178C666.465 539.693 666.608 540.309 666.608 541.025V547.5H665.828V541.057C665.828 540.222 665.579 539.55 665.08 539.043C664.586 538.532 663.932 538.276 663.118 538.276C662.572 538.276 662.087 538.396 661.66 538.634C661.234 538.873 660.9 539.207 660.657 539.638C660.414 540.064 660.293 540.562 660.293 541.134ZM673.677 547.705C672.791 547.705 672.02 547.485 671.364 547.046C670.707 546.607 670.2 546.006 669.842 545.244C669.484 544.481 669.305 543.612 669.305 542.636C669.305 541.656 669.484 540.782 669.842 540.015C670.204 539.248 670.701 538.643 671.332 538.2C671.962 537.756 672.682 537.535 673.492 537.535C674.042 537.535 674.562 537.646 675.052 537.867C675.546 538.085 675.981 538.4 676.356 538.813C676.735 539.227 677.031 539.725 677.244 540.309C677.462 540.893 677.57 541.549 677.57 542.278V542.763H669.797V542.054H676.79C676.79 541.342 676.646 540.701 676.356 540.13C676.066 539.559 675.672 539.105 675.173 538.768C674.675 538.432 674.114 538.263 673.492 538.263C672.84 538.263 672.258 538.447 671.747 538.813C671.24 539.175 670.837 539.665 670.539 540.283C670.245 540.901 670.092 541.592 670.079 542.354V542.674C670.079 543.492 670.222 544.227 670.507 544.879C670.797 545.527 671.21 546.04 671.747 546.42C672.284 546.795 672.927 546.982 673.677 546.982C674.214 546.982 674.672 546.893 675.052 546.714C675.435 546.531 675.748 546.309 675.991 546.049C676.234 545.789 676.418 545.538 676.541 545.295L677.251 545.582C677.101 545.911 676.869 546.239 676.554 546.567C676.243 546.891 675.847 547.161 675.365 547.379C674.888 547.596 674.325 547.705 673.677 547.705ZM683.937 547.705C683.101 547.705 682.366 547.485 681.731 547.046C681.097 546.603 680.6 545.998 680.242 545.231C679.888 544.464 679.712 543.594 679.712 542.623C679.712 541.651 679.891 540.782 680.248 540.015C680.606 539.248 681.103 538.643 681.738 538.2C682.373 537.756 683.104 537.535 683.93 537.535C684.552 537.535 685.119 537.663 685.631 537.918C686.146 538.174 686.572 538.53 686.909 538.986C687.25 539.442 687.467 539.97 687.561 540.571H686.768C686.641 539.906 686.321 539.357 685.81 538.922C685.302 538.483 684.678 538.263 683.937 538.263C683.272 538.263 682.68 538.451 682.16 538.826C681.64 539.197 681.231 539.71 680.932 540.366C680.634 541.018 680.485 541.766 680.485 542.61C680.485 543.441 680.63 544.187 680.92 544.847C681.209 545.504 681.614 546.023 682.134 546.407C682.654 546.79 683.255 546.982 683.937 546.982C684.418 546.982 684.857 546.886 685.253 546.695C685.654 546.503 685.989 546.23 686.257 545.876C686.525 545.523 686.702 545.109 686.788 544.636H687.58C687.486 545.241 687.273 545.774 686.941 546.234C686.609 546.695 686.185 547.055 685.669 547.315C685.153 547.575 684.576 547.705 683.937 547.705ZM693.71 537.682V538.379H689.421V537.682H693.71ZM690.872 535.33H691.646V545.18C691.646 545.58 691.722 545.908 691.876 546.164C692.033 546.415 692.238 546.603 692.489 546.727C692.745 546.846 693.018 546.906 693.307 546.906C693.448 546.906 693.57 546.895 693.672 546.874C693.778 546.852 693.878 546.825 693.972 546.79L694.164 547.5C694.045 547.543 693.913 547.579 693.768 547.609C693.623 547.643 693.452 547.66 693.256 547.66C692.847 547.66 692.459 547.568 692.093 547.385C691.731 547.202 691.437 546.935 691.211 546.586C690.985 546.237 690.872 545.815 690.872 545.32V535.33ZM705.136 537.682V538.379H700.847V537.682H705.136ZM702.298 535.33H703.071V545.18C703.071 545.58 703.148 545.908 703.301 546.164C703.459 546.415 703.664 546.603 703.915 546.727C704.171 546.846 704.443 546.906 704.733 546.906C704.874 546.906 704.995 546.895 705.098 546.874C705.204 546.852 705.304 546.825 705.398 546.79L705.59 547.5C705.47 547.543 705.338 547.579 705.193 547.609C705.049 547.643 704.878 547.66 704.682 547.66C704.273 547.66 703.885 547.568 703.519 547.385C703.157 547.202 702.862 546.935 702.637 546.586C702.411 546.237 702.298 545.815 702.298 545.32V535.33ZM711.573 547.705C710.763 547.705 710.043 547.487 709.412 547.053C708.782 546.614 708.285 546.011 707.923 545.244C707.561 544.477 707.38 543.603 707.38 542.623C707.38 541.638 707.561 540.765 707.923 540.002C708.285 539.235 708.782 538.632 709.412 538.193C710.043 537.754 710.763 537.535 711.573 537.535C712.382 537.535 713.103 537.754 713.733 538.193C714.364 538.632 714.86 539.235 715.223 540.002C715.585 540.769 715.766 541.643 715.766 542.623C715.766 543.603 715.585 544.477 715.223 545.244C714.86 546.011 714.364 546.614 713.733 547.053C713.103 547.487 712.382 547.705 711.573 547.705ZM711.573 546.982C712.259 546.982 712.858 546.788 713.369 546.401C713.884 546.013 714.283 545.489 714.564 544.828C714.85 544.168 714.992 543.433 714.992 542.623C714.992 541.813 714.85 541.08 714.564 540.424C714.279 539.763 713.88 539.239 713.369 538.852C712.858 538.46 712.259 538.263 711.573 538.263C710.887 538.263 710.288 538.46 709.777 538.852C709.265 539.239 708.867 539.763 708.581 540.424C708.296 541.08 708.153 541.813 708.153 542.623C708.153 543.433 708.294 544.168 708.575 544.828C708.86 545.489 709.259 546.013 709.77 546.401C710.286 546.788 710.887 546.982 711.573 546.982ZM726.986 537.682V538.379H722.696V537.682H726.986ZM724.147 535.33H724.921V545.18C724.921 545.58 724.998 545.908 725.151 546.164C725.309 546.415 725.513 546.603 725.765 546.727C726.02 546.846 726.293 546.906 726.583 546.906C726.723 546.906 726.845 546.895 726.947 546.874C727.054 546.852 727.154 546.825 727.248 546.79L727.439 547.5C727.32 547.543 727.188 547.579 727.043 547.609C726.898 547.643 726.728 547.66 726.532 547.66C726.123 547.66 725.735 547.568 725.368 547.385C725.006 547.202 724.712 546.935 724.486 546.586C724.26 546.237 724.147 545.815 724.147 545.32V535.33ZM730.869 541.134V547.5H730.089V534.409H730.869V539.235H730.945C731.176 538.724 731.542 538.317 732.045 538.014C732.552 537.707 733.159 537.554 733.867 537.554C734.527 537.554 735.109 537.695 735.612 537.976C736.114 538.253 736.506 538.651 736.788 539.171C737.073 539.687 737.216 540.305 737.216 541.025V547.5H736.443V541.057C736.443 540.217 736.193 539.544 735.695 539.037C735.196 538.53 734.538 538.276 733.72 538.276C733.17 538.276 732.68 538.396 732.249 538.634C731.819 538.873 731.48 539.207 731.233 539.638C730.99 540.064 730.869 540.562 730.869 541.134ZM744.271 547.705C743.385 547.705 742.614 547.485 741.957 547.046C741.301 546.607 740.794 546.006 740.436 545.244C740.078 544.481 739.899 543.612 739.899 542.636C739.899 541.656 740.078 540.782 740.436 540.015C740.798 539.248 741.295 538.643 741.925 538.2C742.556 537.756 743.276 537.535 744.086 537.535C744.636 537.535 745.155 537.646 745.646 537.867C746.14 538.085 746.574 538.4 746.949 538.813C747.329 539.227 747.625 539.725 747.838 540.309C748.055 540.893 748.164 541.549 748.164 542.278V542.763H740.391V542.054H747.384C747.384 541.342 747.239 540.701 746.949 540.13C746.66 539.559 746.266 539.105 745.767 538.768C745.268 538.432 744.708 538.263 744.086 538.263C743.434 538.263 742.852 538.447 742.341 538.813C741.834 539.175 741.431 539.665 741.133 540.283C740.839 540.901 740.685 541.592 740.672 542.354V542.674C740.672 543.492 740.815 544.227 741.101 544.879C741.391 545.527 741.804 546.04 742.341 546.42C742.878 546.795 743.521 546.982 744.271 546.982C744.808 546.982 745.266 546.893 745.646 546.714C746.029 546.531 746.342 546.309 746.585 546.049C746.828 545.789 747.011 545.538 747.135 545.295L747.844 545.582C747.695 545.911 747.463 546.239 747.148 546.567C746.837 546.891 746.44 547.161 745.959 547.379C745.481 547.596 744.919 547.705 744.271 547.705ZM755.949 547.5V537.682H756.723V547.5H755.949ZM756.339 535.943C756.169 535.943 756.02 535.884 755.892 535.764C755.768 535.645 755.707 535.5 755.707 535.33C755.707 535.159 755.768 535.014 755.892 534.895C756.016 534.776 756.165 534.716 756.339 534.716C756.51 534.716 756.657 534.776 756.78 534.895C756.908 535.014 756.972 535.159 756.972 535.33C756.972 535.5 756.91 535.645 756.787 535.764C756.663 535.884 756.514 535.943 756.339 535.943ZM760.769 541.134V547.5H759.989V537.682H760.75V539.235H760.827C761.057 538.728 761.425 538.321 761.932 538.014C762.44 537.707 763.043 537.554 763.741 537.554C764.402 537.554 764.981 537.695 765.48 537.976C765.983 538.257 766.375 538.658 766.656 539.178C766.942 539.693 767.084 540.309 767.084 541.025V547.5H766.305V541.057C766.305 540.222 766.055 539.55 765.557 539.043C765.062 538.532 764.408 538.276 763.594 538.276C763.049 538.276 762.563 538.396 762.137 538.634C761.711 538.873 761.376 539.207 761.133 539.638C760.891 540.064 760.769 540.562 760.769 541.134ZM773.796 537.682V538.379H769.507V537.682H773.796ZM770.958 535.33H771.731V545.18C771.731 545.58 771.808 545.908 771.962 546.164C772.119 546.415 772.324 546.603 772.575 546.727C772.831 546.846 773.104 546.906 773.393 546.906C773.534 546.906 773.655 546.895 773.758 546.874C773.864 546.852 773.964 546.825 774.058 546.79L774.25 547.5C774.131 547.543 773.998 547.579 773.854 547.609C773.709 547.643 773.538 547.66 773.342 547.66C772.933 547.66 772.545 547.568 772.179 547.385C771.817 547.202 771.523 546.935 771.297 546.586C771.071 546.237 770.958 545.815 770.958 545.32V535.33ZM780.412 547.705C779.525 547.705 778.754 547.485 778.098 547.046C777.442 546.607 776.935 546.006 776.577 545.244C776.219 544.481 776.04 543.612 776.04 542.636C776.04 541.656 776.219 540.782 776.577 540.015C776.939 539.248 777.435 538.643 778.066 538.2C778.697 537.756 779.417 537.535 780.226 537.535C780.776 537.535 781.296 537.646 781.786 537.867C782.28 538.085 782.715 538.4 783.09 538.813C783.469 539.227 783.766 539.725 783.979 540.309C784.196 540.893 784.305 541.549 784.305 542.278V542.763H776.532V542.054H783.525C783.525 541.342 783.38 540.701 783.09 540.13C782.8 539.559 782.406 539.105 781.908 538.768C781.409 538.432 780.849 538.263 780.226 538.263C779.574 538.263 778.993 538.447 778.481 538.813C777.974 539.175 777.572 539.665 777.273 540.283C776.979 540.901 776.826 541.592 776.813 542.354V542.674C776.813 543.492 776.956 544.227 777.241 544.879C777.531 545.527 777.945 546.04 778.481 546.42C779.018 546.795 779.662 546.982 780.412 546.982C780.949 546.982 781.407 546.893 781.786 546.714C782.17 546.531 782.483 546.309 782.726 546.049C782.969 545.789 783.152 545.538 783.275 545.295L783.985 545.582C783.836 545.911 783.604 546.239 783.288 546.567C782.977 546.891 782.581 547.161 782.099 547.379C781.622 547.596 781.06 547.705 780.412 547.705ZM786.989 547.5V537.682H787.75V539.216H787.82C788.033 538.713 788.393 538.31 788.9 538.008C789.408 537.701 789.985 537.548 790.633 537.548C790.701 537.548 790.769 537.548 790.837 537.548C790.905 537.548 790.969 537.55 791.029 537.554V538.34C790.978 538.336 790.916 538.33 790.844 538.321C790.775 538.308 790.69 538.302 790.588 538.302C790.043 538.302 789.557 538.419 789.131 538.653C788.709 538.888 788.376 539.212 788.133 539.625C787.891 540.034 787.769 540.503 787.769 541.031V547.5H786.989ZM793.904 541.134V547.5H793.124V537.682H793.885V539.235H793.961C794.191 538.728 794.56 538.321 795.067 538.014C795.574 537.707 796.177 537.554 796.876 537.554C797.537 537.554 798.116 537.695 798.615 537.976C799.118 538.257 799.51 538.658 799.791 539.178C800.076 539.693 800.219 540.309 800.219 541.025V547.5H799.439V541.057C799.439 540.222 799.19 539.55 798.691 539.043C798.197 538.532 797.543 538.276 796.729 538.276C796.184 538.276 795.698 538.396 795.272 538.634C794.846 538.873 794.511 539.207 794.268 539.638C794.025 540.064 793.904 540.562 793.904 541.134ZM807.289 547.705C806.402 547.705 805.631 547.485 804.975 547.046C804.319 546.607 803.812 546.006 803.454 545.244C803.096 544.481 802.917 543.612 802.917 542.636C802.917 541.656 803.096 540.782 803.454 540.015C803.816 539.248 804.312 538.643 804.943 538.2C805.574 537.756 806.294 537.535 807.103 537.535C807.653 537.535 808.173 537.646 808.663 537.867C809.157 538.085 809.592 538.4 809.967 538.813C810.346 539.227 810.642 539.725 810.856 540.309C811.073 540.893 811.182 541.549 811.182 542.278V542.763H803.409V542.054H810.402C810.402 541.342 810.257 540.701 809.967 540.13C809.677 539.559 809.283 539.105 808.785 538.768C808.286 538.432 807.726 538.263 807.103 538.263C806.451 538.263 805.87 538.447 805.358 538.813C804.851 539.175 804.449 539.665 804.15 540.283C803.856 540.901 803.703 541.592 803.69 542.354V542.674C803.69 543.492 803.833 544.227 804.118 544.879C804.408 545.527 804.821 546.04 805.358 546.42C805.895 546.795 806.539 546.982 807.289 546.982C807.826 546.982 808.284 546.893 808.663 546.714C809.047 546.531 809.36 546.309 809.603 546.049C809.846 545.789 810.029 545.538 810.152 545.295L810.862 545.582C810.713 545.911 810.481 546.239 810.165 546.567C809.854 546.891 809.458 547.161 808.976 547.379C808.499 547.596 807.937 547.705 807.289 547.705ZM817.337 537.682V538.379H813.048V537.682H817.337ZM814.499 535.33H815.272V545.18C815.272 545.58 815.349 545.908 815.503 546.164C815.66 546.415 815.865 546.603 816.116 546.727C816.372 546.846 816.645 546.906 816.934 546.906C817.075 546.906 817.196 546.895 817.299 546.874C817.405 546.852 817.505 546.825 817.599 546.79L817.791 547.5C817.672 547.543 817.54 547.579 817.395 547.609C817.25 547.643 817.079 547.66 816.883 547.66C816.474 547.66 816.086 547.568 815.72 547.385C815.358 547.202 815.064 546.935 814.838 546.586C814.612 546.237 814.499 545.815 814.499 545.32V535.33ZM827.894 547.711C827.327 547.711 826.807 547.598 826.334 547.372C825.865 547.146 825.488 546.816 825.203 546.381C824.921 545.947 824.781 545.418 824.781 544.796C824.781 544.387 824.853 544.027 824.998 543.716C825.143 543.405 825.367 543.136 825.669 542.911C825.972 542.685 826.359 542.499 826.832 542.354C827.305 542.205 827.87 542.09 828.526 542.009C829.025 541.95 829.47 541.892 829.862 541.837C830.254 541.777 830.561 541.685 830.783 541.562C831.009 541.438 831.122 541.251 831.122 540.999V540.59C831.122 539.874 830.896 539.305 830.444 538.884C829.992 538.462 829.37 538.251 828.578 538.251C827.874 538.251 827.282 538.406 826.801 538.717C826.323 539.024 825.989 539.42 825.797 539.906L825.062 539.631C825.249 539.163 825.52 538.773 825.874 538.462C826.232 538.151 826.641 537.918 827.101 537.765C827.565 537.612 828.051 537.535 828.558 537.535C828.997 537.535 829.415 537.597 829.811 537.72C830.212 537.844 830.568 538.031 830.879 538.283C831.194 538.534 831.443 538.856 831.627 539.248C831.81 539.636 831.901 540.1 831.901 540.641V547.5H831.122V545.729H831.064C830.894 546.096 830.659 546.43 830.361 546.733C830.067 547.031 829.711 547.27 829.293 547.449C828.88 547.624 828.413 547.711 827.894 547.711ZM827.97 546.989C828.584 546.989 829.127 546.839 829.6 546.541C830.078 546.239 830.45 545.825 830.719 545.301C830.987 544.777 831.122 544.183 831.122 543.518V542.073C831.024 542.158 830.881 542.235 830.693 542.303C830.51 542.367 830.301 542.425 830.067 542.476C829.837 542.523 829.594 542.565 829.338 542.604C829.087 542.638 828.842 542.67 828.603 542.7C827.887 542.785 827.303 542.917 826.852 543.096C826.404 543.271 826.076 543.501 825.867 543.786C825.663 544.072 825.56 544.417 825.56 544.822C825.56 545.491 825.791 546.019 826.251 546.407C826.711 546.795 827.284 546.989 827.97 546.989ZM835.951 541.134V547.5H835.171V537.682H835.932V539.235H836.008C836.238 538.728 836.607 538.321 837.114 538.014C837.621 537.707 838.224 537.554 838.923 537.554C839.584 537.554 840.163 537.695 840.662 537.976C841.165 538.257 841.557 538.658 841.838 539.178C842.123 539.693 842.266 540.309 842.266 541.025V547.5H841.486V541.057C841.486 540.222 841.237 539.55 840.738 539.043C840.244 538.532 839.59 538.276 838.776 538.276C838.231 538.276 837.745 538.396 837.319 538.634C836.892 538.873 836.558 539.207 836.315 539.638C836.072 540.064 835.951 540.562 835.951 541.134ZM848.875 547.705C848.087 547.705 847.399 547.487 846.811 547.053C846.223 546.618 845.767 546.019 845.443 545.256C845.123 544.489 844.964 543.609 844.964 542.616C844.964 541.632 845.125 540.759 845.449 539.996C845.777 539.229 846.236 538.628 846.824 538.193C847.412 537.754 848.098 537.535 848.882 537.535C849.444 537.535 849.932 537.643 850.346 537.861C850.763 538.074 851.113 538.357 851.394 538.711C851.679 539.065 851.897 539.452 852.046 539.874H852.123V534.409H852.896V547.5H852.142V545.359H852.046C851.888 545.781 851.669 546.17 851.388 546.528C851.106 546.882 850.757 547.168 850.339 547.385C849.922 547.598 849.434 547.705 848.875 547.705ZM848.946 546.982C849.611 546.982 850.179 546.793 850.652 546.413C851.13 546.03 851.494 545.51 851.745 544.854C852.001 544.193 852.129 543.445 852.129 542.61C852.129 541.775 852.001 541.031 851.745 540.379C851.494 539.723 851.13 539.207 850.652 538.832C850.179 538.453 849.611 538.263 848.946 538.263C848.272 538.263 847.695 538.455 847.214 538.839C846.736 539.218 846.37 539.736 846.114 540.392C845.863 541.048 845.737 541.788 845.737 542.61C845.737 543.433 845.863 544.174 846.114 544.835C846.37 545.495 846.736 546.019 847.214 546.407C847.695 546.79 848.272 546.982 848.946 546.982ZM864.939 537.682V538.379H860.65V537.682H864.939ZM862.101 535.33H862.874V545.18C862.874 545.58 862.951 545.908 863.104 546.164C863.262 546.415 863.466 546.603 863.718 546.727C863.973 546.846 864.246 546.906 864.536 546.906C864.677 546.906 864.798 546.895 864.9 546.874C865.007 546.852 865.107 546.825 865.201 546.79L865.392 547.5C865.273 547.543 865.141 547.579 864.996 547.609C864.851 547.643 864.681 547.66 864.485 547.66C864.076 547.66 863.688 547.568 863.321 547.385C862.959 547.202 862.665 546.935 862.439 546.586C862.214 546.237 862.101 545.815 862.101 545.32V535.33ZM867.831 547.5V537.682H868.592V539.216H868.662C868.875 538.713 869.235 538.31 869.742 538.008C870.249 537.701 870.827 537.548 871.475 537.548C871.543 537.548 871.611 537.548 871.679 537.548C871.747 537.548 871.811 537.55 871.871 537.554V538.34C871.82 538.336 871.758 538.33 871.685 538.321C871.617 538.308 871.532 538.302 871.43 538.302C870.884 538.302 870.399 538.419 869.972 538.653C869.551 538.888 869.218 539.212 868.975 539.625C868.732 540.034 868.611 540.503 868.611 541.031V547.5H867.831ZM874.891 551.182C874.695 551.182 874.501 551.161 874.309 551.118C874.118 551.075 873.945 551.02 873.792 550.952L874.022 550.268C874.422 550.421 874.785 550.477 875.108 550.434C875.437 550.391 875.726 550.242 875.978 549.987C876.229 549.731 876.442 549.356 876.617 548.862L877.064 547.634L873.466 537.682H874.303L877.422 546.496H877.486L880.606 537.682H881.443L877.301 549.168C877.143 549.612 876.945 549.982 876.706 550.281C876.468 550.579 876.195 550.803 875.888 550.952C875.586 551.105 875.253 551.182 874.891 551.182ZM891.544 547.711C890.977 547.711 890.457 547.598 889.984 547.372C889.516 547.146 889.138 546.816 888.853 546.381C888.572 545.947 888.431 545.418 888.431 544.796C888.431 544.387 888.503 544.027 888.648 543.716C888.793 543.405 889.017 543.136 889.32 542.911C889.622 542.685 890.01 542.499 890.483 542.354C890.956 542.205 891.521 542.09 892.177 542.009C892.675 541.95 893.121 541.892 893.513 541.837C893.905 541.777 894.212 541.685 894.433 541.562C894.659 541.438 894.772 541.251 894.772 540.999V540.59C894.772 539.874 894.546 539.305 894.094 538.884C893.643 538.462 893.021 538.251 892.228 538.251C891.525 538.251 890.932 538.406 890.451 538.717C889.974 539.024 889.639 539.42 889.447 539.906L888.712 539.631C888.9 539.163 889.17 538.773 889.524 538.462C889.882 538.151 890.291 537.918 890.751 537.765C891.216 537.612 891.702 537.535 892.209 537.535C892.648 537.535 893.065 537.597 893.462 537.72C893.862 537.844 894.218 538.031 894.529 538.283C894.844 538.534 895.094 538.856 895.277 539.248C895.46 539.636 895.552 540.1 895.552 540.641V547.5H894.772V545.729H894.714C894.544 546.096 894.31 546.43 894.011 546.733C893.717 547.031 893.361 547.27 892.944 547.449C892.53 547.624 892.064 547.711 891.544 547.711ZM891.621 546.989C892.234 546.989 892.778 546.839 893.251 546.541C893.728 546.239 894.101 545.825 894.369 545.301C894.638 544.777 894.772 544.183 894.772 543.518V542.073C894.674 542.158 894.531 542.235 894.344 542.303C894.16 542.367 893.952 542.425 893.717 542.476C893.487 542.523 893.244 542.565 892.989 542.604C892.737 542.638 892.492 542.67 892.253 542.7C891.538 542.785 890.954 542.917 890.502 543.096C890.055 543.271 889.726 543.501 889.518 543.786C889.313 544.072 889.211 544.417 889.211 544.822C889.211 545.491 889.441 546.019 889.901 546.407C890.361 546.795 890.935 546.989 891.621 546.989ZM902.362 551.386C901.753 551.386 901.206 551.305 900.72 551.143C900.234 550.986 899.821 550.76 899.48 550.466C899.143 550.172 898.885 549.822 898.706 549.418L899.358 549.034C899.503 549.349 899.71 549.631 899.978 549.878C900.247 550.125 900.579 550.319 900.975 550.46C901.376 550.6 901.838 550.67 902.362 550.67C903.309 550.67 904.056 550.425 904.606 549.935C905.16 549.45 905.437 548.704 905.437 547.698V545.256H905.36C905.211 545.683 904.99 546.062 904.696 546.394C904.406 546.722 904.05 546.98 903.628 547.168C903.206 547.355 902.727 547.449 902.19 547.449C901.414 547.449 900.733 547.249 900.144 546.848C899.556 546.447 899.098 545.885 898.77 545.161C898.442 544.432 898.278 543.575 898.278 542.591C898.278 541.607 898.438 540.735 898.757 539.977C899.081 539.214 899.537 538.617 900.125 538.187C900.713 537.752 901.404 537.535 902.196 537.535C902.763 537.535 903.253 537.643 903.666 537.861C904.084 538.074 904.434 538.357 904.715 538.711C904.996 539.065 905.213 539.452 905.367 539.874H905.456V537.682H906.21V547.73C906.21 548.548 906.049 549.228 905.725 549.769C905.405 550.31 904.956 550.715 904.376 550.984C903.801 551.252 903.13 551.386 902.362 551.386ZM902.26 546.727C902.916 546.727 903.481 546.56 903.954 546.228C904.431 545.891 904.798 545.414 905.054 544.796C905.313 544.174 905.443 543.437 905.443 542.585C905.443 541.758 905.318 541.018 905.066 540.366C904.815 539.714 904.451 539.201 903.973 538.826C903.496 538.451 902.925 538.263 902.26 538.263C901.583 538.263 901.005 538.455 900.528 538.839C900.051 539.218 899.684 539.734 899.429 540.386C899.177 541.038 899.051 541.771 899.051 542.585C899.051 543.403 899.179 544.123 899.435 544.745C899.691 545.363 900.057 545.849 900.534 546.202C901.012 546.552 901.587 546.727 902.26 546.727ZM912.093 547.711C911.526 547.711 911.006 547.598 910.533 547.372C910.064 547.146 909.687 546.816 909.402 546.381C909.12 545.947 908.98 545.418 908.98 544.796C908.98 544.387 909.052 544.027 909.197 543.716C909.342 543.405 909.566 543.136 909.868 542.911C910.171 542.685 910.559 542.499 911.032 542.354C911.505 542.205 912.069 542.09 912.726 542.009C913.224 541.95 913.669 541.892 914.062 541.837C914.454 541.777 914.76 541.685 914.982 541.562C915.208 541.438 915.321 541.251 915.321 540.999V540.59C915.321 539.874 915.095 539.305 914.643 538.884C914.191 538.462 913.569 538.251 912.777 538.251C912.074 538.251 911.481 538.406 911 538.717C910.522 539.024 910.188 539.42 909.996 539.906L909.261 539.631C909.449 539.163 909.719 538.773 910.073 538.462C910.431 538.151 910.84 537.918 911.3 537.765C911.765 537.612 912.25 537.535 912.758 537.535C913.196 537.535 913.614 537.597 914.01 537.72C914.411 537.844 914.767 538.031 915.078 538.283C915.393 538.534 915.642 538.856 915.826 539.248C916.009 539.636 916.101 540.1 916.101 540.641V547.5H915.321V545.729H915.263C915.093 546.096 914.858 546.43 914.56 546.733C914.266 547.031 913.91 547.27 913.493 547.449C913.079 547.624 912.613 547.711 912.093 547.711ZM912.169 546.989C912.783 546.989 913.326 546.839 913.799 546.541C914.277 546.239 914.65 545.825 914.918 545.301C915.187 544.777 915.321 544.183 915.321 543.518V542.073C915.223 542.158 915.08 542.235 914.892 542.303C914.709 542.367 914.5 542.425 914.266 542.476C914.036 542.523 913.793 542.565 913.537 542.604C913.286 542.638 913.041 542.67 912.802 542.7C912.086 542.785 911.503 542.917 911.051 543.096C910.603 543.271 910.275 543.501 910.066 543.786C909.862 544.072 909.76 544.417 909.76 544.822C909.76 545.491 909.99 546.019 910.45 546.407C910.91 546.795 911.483 546.989 912.169 546.989ZM919.408 547.5V537.682H920.182V547.5H919.408ZM919.798 535.943C919.628 535.943 919.479 535.884 919.351 535.764C919.227 535.645 919.166 535.5 919.166 535.33C919.166 535.159 919.227 535.014 919.351 534.895C919.475 534.776 919.624 534.716 919.798 534.716C919.969 534.716 920.116 534.776 920.239 534.895C920.367 535.014 920.431 535.159 920.431 535.33C920.431 535.5 920.369 535.645 920.246 535.764C920.122 535.884 919.973 535.943 919.798 535.943ZM924.228 541.134V547.5H923.448V537.682H924.209V539.235H924.286C924.516 538.728 924.884 538.321 925.391 538.014C925.899 537.707 926.502 537.554 927.2 537.554C927.861 537.554 928.44 537.695 928.939 537.976C929.442 538.257 929.834 538.658 930.115 539.178C930.401 539.693 930.543 540.309 930.543 541.025V547.5H929.764V541.057C929.764 540.222 929.514 539.55 929.016 539.043C928.521 538.532 927.867 538.276 927.053 538.276C926.508 538.276 926.022 538.396 925.596 538.634C925.17 538.873 924.835 539.207 924.592 539.638C924.35 540.064 924.228 540.562 924.228 541.134ZM934.513 547.583C934.321 547.583 934.157 547.517 934.021 547.385C933.889 547.249 933.823 547.085 933.823 546.893C933.823 546.705 933.889 546.543 934.021 546.407C934.157 546.271 934.321 546.202 934.513 546.202C934.7 546.202 934.862 546.271 934.999 546.407C935.135 546.543 935.203 546.705 935.203 546.893C935.203 547.021 935.171 547.138 935.107 547.244C935.048 547.347 934.965 547.43 934.858 547.494C934.756 547.553 934.641 547.583 934.513 547.583Z" fill="black" fill-opacity="0.6"/>
<defs>
<filter id="filter0_d_23_431" x="695.519" y="488.676" width="112.282" height="21.968" filterUnits="userSpaceOnUse" color-interpolation-filters="sRGB">
<feFlood flood-opacity="0" result="BackgroundImageFix"/>
<feColorMatrix in="SourceAlpha" type="matrix" values="0 0 0 0 0 0 0 0 0 0 0 0 0 0 0 0 0 0 127 0" result="hardAlpha"/>
<feOffset dy="4"/>
<feGaussianBlur stdDeviation="2"/>
<feComposite in2="hardAlpha" operator="out"/>
<feColorMatrix type="matrix" values="0 0 0 0 0 0 0 0 0 0 0 0 0 0 0 0 0 0 0.25 0"/>
<feBlend mode="normal" in2="BackgroundImageFix" result="effect1_dropShadow_23_431"/>
<feBlend mode="normal" in="SourceGraphic" in2="effect1_dropShadow_23_431" result="shape"/>
</filter>
</defs>
</svg>
